<mxfile host="app.diagrams.net" agent="Mozilla/5.0 (Windows NT 10.0; Win64; x64) AppleWebKit/537.36 (KHTML, like Gecko) Chrome/135.0.0.0 Safari/537.36 Edg/135.0.0.0" version="26.2.13">
  <diagram name="Страница — 1" id="cDtAioRGOH2eimwJ0MRe">
    <mxGraphModel dx="1036" dy="536" grid="1" gridSize="10" guides="1" tooltips="1" connect="1" arrows="1" fold="1" page="1" pageScale="1" pageWidth="827" pageHeight="1169" math="0" shadow="0">
      <root>
        <mxCell id="0" />
        <mxCell id="1" parent="0" />
        <mxCell id="OieY7MFDGjZ9IrIKq8Xh-1" value="" style="rounded=1;whiteSpace=wrap;html=1;" vertex="1" parent="1">
          <mxGeometry x="414" y="70" width="280" height="180" as="geometry" />
        </mxCell>
        <mxCell id="OieY7MFDGjZ9IrIKq8Xh-2" value="" style="ellipse;whiteSpace=wrap;html=1;aspect=fixed;" vertex="1" parent="1">
          <mxGeometry x="100" y="10" width="80" height="80" as="geometry" />
        </mxCell>
        <mxCell id="OieY7MFDGjZ9IrIKq8Xh-3" value="" style="endArrow=none;html=1;rounded=0;" edge="1" parent="1">
          <mxGeometry width="50" height="50" relative="1" as="geometry">
            <mxPoint x="140" y="260" as="sourcePoint" />
            <mxPoint x="140" y="90" as="targetPoint" />
          </mxGeometry>
        </mxCell>
        <mxCell id="OieY7MFDGjZ9IrIKq8Xh-4" value="" style="endArrow=none;html=1;rounded=0;" edge="1" parent="1">
          <mxGeometry width="50" height="50" relative="1" as="geometry">
            <mxPoint x="90" y="310" as="sourcePoint" />
            <mxPoint x="140" y="260" as="targetPoint" />
          </mxGeometry>
        </mxCell>
        <mxCell id="OieY7MFDGjZ9IrIKq8Xh-5" value="" style="endArrow=none;html=1;rounded=0;" edge="1" parent="1">
          <mxGeometry width="50" height="50" relative="1" as="geometry">
            <mxPoint x="190" y="310" as="sourcePoint" />
            <mxPoint x="140" y="260" as="targetPoint" />
            <Array as="points">
              <mxPoint x="150" y="270" />
            </Array>
          </mxGeometry>
        </mxCell>
        <mxCell id="OieY7MFDGjZ9IrIKq8Xh-6" value="" style="endArrow=none;html=1;rounded=0;" edge="1" parent="1">
          <mxGeometry width="50" height="50" relative="1" as="geometry">
            <mxPoint x="90" y="180" as="sourcePoint" />
            <mxPoint x="140" y="130" as="targetPoint" />
          </mxGeometry>
        </mxCell>
        <mxCell id="OieY7MFDGjZ9IrIKq8Xh-7" value="" style="endArrow=none;html=1;rounded=0;" edge="1" parent="1">
          <mxGeometry width="50" height="50" relative="1" as="geometry">
            <mxPoint x="180" y="180" as="sourcePoint" />
            <mxPoint x="140" y="130" as="targetPoint" />
          </mxGeometry>
        </mxCell>
        <mxCell id="OieY7MFDGjZ9IrIKq8Xh-8" value="" style="endArrow=classic;html=1;rounded=0;" edge="1" parent="1">
          <mxGeometry width="50" height="50" relative="1" as="geometry">
            <mxPoint x="210" y="110" as="sourcePoint" />
            <mxPoint x="400" y="110" as="targetPoint" />
          </mxGeometry>
        </mxCell>
        <mxCell id="OieY7MFDGjZ9IrIKq8Xh-9" value="Просмотр паролей" style="text;html=1;align=center;verticalAlign=middle;whiteSpace=wrap;rounded=0;" vertex="1" parent="1">
          <mxGeometry x="270" y="70" width="60" height="30" as="geometry" />
        </mxCell>
        <mxCell id="OieY7MFDGjZ9IrIKq8Xh-10" value="&lt;h1 style=&quot;margin-top: 0px;&quot;&gt;Графический интерфейс&lt;/h1&gt;" style="text;html=1;whiteSpace=wrap;overflow=hidden;rounded=0;" vertex="1" parent="1">
          <mxGeometry x="470" y="100" width="180" height="120" as="geometry" />
        </mxCell>
        <mxCell id="OieY7MFDGjZ9IrIKq8Xh-11" value="" style="endArrow=classic;html=1;rounded=0;" edge="1" parent="1">
          <mxGeometry width="50" height="50" relative="1" as="geometry">
            <mxPoint x="553.5" y="260" as="sourcePoint" />
            <mxPoint x="553.5" y="390" as="targetPoint" />
          </mxGeometry>
        </mxCell>
        <mxCell id="OieY7MFDGjZ9IrIKq8Xh-12" value="" style="endArrow=classic;html=1;rounded=0;" edge="1" parent="1">
          <mxGeometry width="50" height="50" relative="1" as="geometry">
            <mxPoint x="520" y="390" as="sourcePoint" />
            <mxPoint x="520" y="260" as="targetPoint" />
          </mxGeometry>
        </mxCell>
        <mxCell id="OieY7MFDGjZ9IrIKq8Xh-13" value="П&lt;span style=&quot;background-color: transparent; color: light-dark(rgb(0, 0, 0), rgb(255, 255, 255));&quot;&gt;олучение паролей&lt;/span&gt;" style="text;html=1;align=center;verticalAlign=middle;whiteSpace=wrap;rounded=0;" vertex="1" parent="1">
          <mxGeometry x="590" y="320" width="60" height="30" as="geometry" />
        </mxCell>
        <mxCell id="OieY7MFDGjZ9IrIKq8Xh-14" value="Отображение паролей" style="text;html=1;align=center;verticalAlign=middle;whiteSpace=wrap;rounded=0;" vertex="1" parent="1">
          <mxGeometry x="420" y="310" width="60" height="30" as="geometry" />
        </mxCell>
        <mxCell id="OieY7MFDGjZ9IrIKq8Xh-15" value="" style="rounded=1;whiteSpace=wrap;html=1;" vertex="1" parent="1">
          <mxGeometry x="230" y="410" width="330" height="190" as="geometry" />
        </mxCell>
        <mxCell id="OieY7MFDGjZ9IrIKq8Xh-16" value="&lt;h1 style=&quot;margin-top: 0px;&quot;&gt;Браузер&lt;/h1&gt;" style="text;html=1;whiteSpace=wrap;overflow=hidden;rounded=0;" vertex="1" parent="1">
          <mxGeometry x="305" y="430" width="180" height="120" as="geometry" />
        </mxCell>
        <mxCell id="OieY7MFDGjZ9IrIKq8Xh-17" value="Сохраненные пароли" style="text;html=1;align=center;verticalAlign=middle;whiteSpace=wrap;rounded=0;" vertex="1" parent="1">
          <mxGeometry x="280" y="470" width="170" height="100" as="geometry" />
        </mxCell>
      </root>
    </mxGraphModel>
  </diagram>
</mxfile>
